<svg xmlns="http://www.w3.org/2000/svg" viewBox="0 0 16 16" id="Handshake-Angle--Streamline-Font-Awesome" height="16" width="16">
  <desc>
    Handshake Angle Streamline Icon: https://streamlinehq.com
  </desc>
<!--! Font Awesome Free 6.5.2 by @fontawesome - https://fontawesome.com License - https://fontawesome.com/license/free (Icons: CC BY 4.0, Fonts: SIL OFL 1.1, Code: MIT License) Copyright 2024 Fonticons, Inc.-->
  <path d="M13.66275 7.821775v0.08342500000000001l1.762025 -1.762025c0.5536325 -0.553635 0.5536325 -1.4485525000000001 0 -2.0021875000000002l-1.97438 -1.9718499999999999c-0.553635 -0.553635 -1.44855 -0.553635 -2.0021850000000003 0l-1.0137325000000001 1.013735c-0.06825750000000001 -0.007585000000000001 -0.1390425 -0.012640000000000002 -0.20982500000000004 -0.012640000000000002h-2.831375c-0.9378925000000001 0 -1.7089375000000002 0.7078425 -1.8100575 1.6179275000000002h-0.010112500000000002V7.821775c0 0.55869 0.452515 1.0112050000000001 1.0112050000000001 1.0112050000000001s1.0112050000000001 -0.45251250000000004 1.0112050000000001 -1.0112050000000001v-2.22465h4.0448200000000005c1.1173825000000002 0 2.0224125 0.9050275 2.0224125 2.0224100000000003v0.20224000000000003Zm-5.2582675000000005 -1.4156875v1.4156875c0 1.00615 -0.8140200000000001 1.82017 -1.82017 1.82017s-1.82017 -0.8140200000000001 -1.82017 -1.82017V4.823552500000001c-0.907555 0.156735 -1.6634325 0.8165475000000001 -1.9212875 1.7241050000000002l-0.4171225 1.456135 -1.8505075000000002 1.850505c-0.5536325 0.553635 -0.5536325 1.4485525000000001 0 2.0021875000000002l1.97438 1.9743775000000001c0.553635 0.553635 1.44855 0.553635 2.0021850000000003 0l0.95306 -0.9530625000000001c0.022752500000000002 0 0.045505000000000004 0.00253 0.06825750000000001 0.00253h4.0448200000000005c0.6699250000000001 0 1.2134475 -0.5435225 1.2134475 -1.2134475 0 -0.1415675 -0.025280000000000004 -0.27808000000000005 -0.06825750000000001 -0.4044825000000001h0.06825750000000001c0.6699225000000001 0 1.213445 -0.5435225 1.213445 -1.213445 0 -0.323585 -0.1264 -0.616835 -0.3336975 -0.834245 0.6497 -0.1264 1.1401350000000001 -0.69773 1.1426625 -1.38535v-0.010112500000000002c-0.0025275000000000002 -0.7786275 -0.6345325 -1.4106325000000002 -1.4156875 -1.4106325000000002H8.4044825Z" fill="#ffc107" stroke-width="0.025"></path>
</svg>